<svg width="27" height="30" viewBox="0 0 27 30" fill="none" xmlns="http://www.w3.org/2000/svg">
<path d="M23.3333 2.91667H21.875V0H18.9583V2.91667H7.29167V0H4.375V2.91667H2.91667C1.29792 2.91667 0.0145833 4.22917 0.0145833 5.83333L0 26.25C0 27.8542 1.29792 29.1667 2.91667 29.1667H23.3333C24.9375 29.1667 26.25 27.8542 26.25 26.25V5.83333C26.25 4.22917 24.9375 2.91667 23.3333 2.91667ZM23.3333 26.25H2.91667V11.6667H23.3333V26.25ZM8.75 17.5H5.83333V14.5833H8.75V17.5ZM14.5833 17.5H11.6667V14.5833H14.5833V17.5ZM20.4167 17.5H17.5V14.5833H20.4167V17.5ZM8.75 23.3333H5.83333V20.4167H8.75V23.3333ZM14.5833 23.3333H11.6667V20.4167H14.5833V23.3333ZM20.4167 23.3333H17.5V20.4167H20.4167V23.3333Z" fill="white"/>
</svg>
