<svg width="30" height="30" viewBox="0 0 30 30" fill="none" xmlns="http://www.w3.org/2000/svg">
<path d="M18.6703 29.9675C18.6749 29.9233 18.6773 29.8782 18.6773 29.8328V19.029H22.3699C22.962 19.029 23.4949 18.6391 23.5815 18.0533C23.7246 17.0843 23.6638 16.2032 23.5712 15.5766C23.4862 15.0014 22.9737 14.6228 22.3923 14.6228H18.6773C18.6773 11.2933 19.2313 10.8089 22.3539 10.7483C22.9531 10.7367 23.4909 10.341 23.5779 9.74799C23.7241 8.75119 23.6658 7.88027 23.5741 7.26759C23.4893 6.70164 22.9819 6.33272 22.4098 6.33773C16.8909 6.38587 13.7475 7.03849 13.7475 14.6228H10.8883C10.3327 14.6228 9.83933 14.9711 9.75527 15.5204C9.66473 16.1123 9.61 16.9702 9.76113 18.0137C9.84847 18.6165 10.3906 19.029 10.9997 19.029H13.7475V30C9.4742 29.9719 6.41547 29.8032 4.4238 29.6414C2.2319 29.4633 0.54068 27.7718 0.362593 25.5797C0.185387 23.3983 0 19.937 0 15.002C0 10.0671 0.185387 6.60576 0.362593 4.4244C0.54068 2.2322 2.2319 0.540753 4.42381 0.362642C6.60487 0.185405 10.0657 0 15 0C19.9343 0 23.3951 0.185412 25.5762 0.362642C27.7681 0.540753 29.4593 2.2322 29.6374 4.4244C29.8146 6.60576 30 10.0671 30 15.002C30 19.937 29.8146 23.3983 29.6374 25.5797C29.4593 27.7719 27.7681 29.4633 25.5762 29.6414C23.9826 29.7709 21.7058 29.9048 18.6703 29.9675Z" fill="#F5E8D9"/>
</svg>
