<svg width="45" height="45" viewBox="0 0 45 45" fill="none" xmlns="http://www.w3.org/2000/svg">
<path d="M16.9875 3.61873C13.4438 3.59998 9.99375 7.01248 11.5688 11.25H5.625C4.63044 11.25 3.67661 11.6451 2.97335 12.3483C2.27009 13.0516 1.875 14.0054 1.875 15V18.75C1.875 19.2473 2.07254 19.7242 2.42417 20.0758C2.77581 20.4274 3.25272 20.625 3.75 20.625H20.625V15H24.375V20.625H41.25C41.7473 20.625 42.2242 20.4274 42.5758 20.0758C42.9275 19.7242 43.125 19.2473 43.125 18.75V15C43.125 14.0054 42.7299 13.0516 42.0266 12.3483C41.3234 11.6451 40.3696 11.25 39.375 11.25H33.4312C35.625 5.11873 27.375 0.787479 23.5687 6.07498L22.5 7.49998L21.4313 6.03748C20.25 4.36873 18.6188 3.63748 16.9875 3.61873ZM16.875 7.49998C18.5438 7.49998 19.3875 9.52498 18.2062 10.7062C17.025 11.8875 15 11.0437 15 9.37498C15 8.8777 15.1975 8.40079 15.5492 8.04915C15.9008 7.69752 16.3777 7.49998 16.875 7.49998ZM28.125 7.49998C29.7938 7.49998 30.6375 9.52498 29.4562 10.7062C28.275 11.8875 26.25 11.0437 26.25 9.37498C26.25 8.8777 26.4475 8.40079 26.7992 8.04915C27.1508 7.69752 27.6277 7.49998 28.125 7.49998ZM3.75 22.5V37.5C3.75 38.4945 4.14509 39.4484 4.84835 40.1516C5.55161 40.8549 6.50544 41.25 7.5 41.25H37.5C38.4946 41.25 39.4484 40.8549 40.1516 40.1516C40.8549 39.4484 41.25 38.4945 41.25 37.5V22.5H24.375V37.5H20.625V22.5H3.75Z" fill="white"/>
</svg>
