<svg width="23" height="23" viewBox="0 0 23 23" fill="none" xmlns="http://www.w3.org/2000/svg">
<path d="M20.875 0.666667C19.7187 0.2 18.4479 0 17.2291 0C15.1979 0 13.0104 0.533333 11.5 2C9.98954 0.533333 7.80204 0 5.77079 0C3.73954 0 1.55204 0.533333 0.041626 2V21.5333C0.041626 21.8667 0.302043 22.2 0.562459 22.2C0.666626 22.2 0.718709 22.1333 0.822876 22.1333C2.22913 21.2667 4.26038 20.6667 5.77079 20.6667C7.80204 20.6667 9.98954 21.2 11.5 22.6667C12.9062 21.5333 15.4583 20.6667 17.2291 20.6667C18.9479 20.6667 20.7187 21.0667 22.177 22.0667C22.2812 22.1333 22.3333 22.1333 22.4375 22.1333C22.6979 22.1333 22.9583 21.8 22.9583 21.4667V2C22.3333 1.4 21.6562 1 20.875 0.666667ZM20.875 18.6667C19.7291 18.2 18.4791 18 17.2291 18C15.4583 18 12.9062 18.8667 11.5 20V4.66667C12.9062 3.53333 15.4583 2.66667 17.2291 2.66667C18.4791 2.66667 19.7291 2.86667 20.875 3.33333V18.6667Z" fill="#F5E8D9"/>
<path d="M17.2291 8C18.1458 8 19.0312 8.12 19.8333 8.34667V6.32C19.0104 6.12 18.125 6 17.2291 6C15.4583 6 13.8541 6.38667 12.5416 7.10667V9.32C13.7187 8.46667 15.3541 8 17.2291 8Z" fill="#F5E8D9"/>
<path d="M12.5416 10.6533V12.8666C13.7187 12.0133 15.3541 11.5466 17.2291 11.5466C18.1458 11.5466 19.0312 11.6666 19.8333 11.8933V9.86663C19.0104 9.66663 18.125 9.54663 17.2291 9.54663C15.4583 9.54663 13.8541 9.94663 12.5416 10.6533Z" fill="#F5E8D9"/>
<path d="M17.2291 13.1067C15.4583 13.1067 13.8541 13.4934 12.5416 14.2134V16.4267C13.7187 15.5734 15.3541 15.1067 17.2291 15.1067C18.1458 15.1067 19.0312 15.2267 19.8333 15.4534V13.4267C19.0104 13.2134 18.125 13.1067 17.2291 13.1067Z" fill="#F5E8D9"/>
</svg>
