<svg width="23" height="23" viewBox="0 0 23 23" fill="none" xmlns="http://www.w3.org/2000/svg">
<path d="M20.875 0.666667C19.7188 0.2 18.4479 0 17.2292 0C15.1979 0 13.0104 0.533333 11.5 2C9.9896 0.533333 7.8021 0 5.77085 0C3.7396 0 1.5521 0.533333 0.041687 2V21.5333C0.041687 21.8667 0.302104 22.2 0.56252 22.2C0.666687 22.2 0.71877 22.1333 0.822937 22.1333C2.22919 21.2667 4.26044 20.6667 5.77085 20.6667C7.8021 20.6667 9.9896 21.2 11.5 22.6667C12.9063 21.5333 15.4584 20.6667 17.2292 20.6667C18.9479 20.6667 20.7188 21.0667 22.1771 22.0667C22.2813 22.1333 22.3334 22.1333 22.4375 22.1333C22.6979 22.1333 22.9584 21.8 22.9584 21.4667V2C22.3334 1.4 21.6563 1 20.875 0.666667ZM20.875 18.6667C19.7292 18.2 18.4792 18 17.2292 18C15.4584 18 12.9063 18.8667 11.5 20V4.66667C12.9063 3.53333 15.4584 2.66667 17.2292 2.66667C18.4792 2.66667 19.7292 2.86667 20.875 3.33333V18.6667Z" fill="white"/>
<path d="M17.2292 8C18.1459 8 19.0313 8.12 19.8334 8.34667V6.32C19.0104 6.12 18.125 6 17.2292 6C15.4584 6 13.8542 6.38667 12.5417 7.10667V9.32C13.7188 8.46667 15.3542 8 17.2292 8Z" fill="white"/>
<path d="M12.5417 10.6533V12.8666C13.7188 12.0133 15.3542 11.5466 17.2292 11.5466C18.1459 11.5466 19.0313 11.6666 19.8334 11.8933V9.86663C19.0104 9.66663 18.125 9.54663 17.2292 9.54663C15.4584 9.54663 13.8542 9.94663 12.5417 10.6533Z" fill="white"/>
<path d="M17.2292 13.1067C15.4584 13.1067 13.8542 13.4934 12.5417 14.2134V16.4267C13.7188 15.5734 15.3542 15.1067 17.2292 15.1067C18.1459 15.1067 19.0313 15.2267 19.8334 15.4534V13.4267C19.0104 13.2134 18.125 13.1067 17.2292 13.1067Z" fill="white"/>
</svg>
