<svg width="45" height="45" viewBox="0 0 45 45" fill="none" xmlns="http://www.w3.org/2000/svg">
<path d="M34.6875 5.625H30C29.7514 5.625 29.5129 5.72377 29.3371 5.89959C29.1613 6.0754 29.0625 6.31386 29.0625 6.5625V6.67313L35.625 11.9231V6.5625C35.625 6.31386 35.5262 6.0754 35.3504 5.89959C35.1746 5.72377 34.9361 5.625 34.6875 5.625Z" fill="white"/>
<path d="M20.1562 17.8125C20.1563 17.1909 20.4032 16.5948 20.8427 16.1552C21.2823 15.7157 21.8784 15.4688 22.5 15.4688C23.1216 15.4688 23.7177 15.7157 24.1573 16.1552C24.5968 16.5948 24.8438 17.1909 24.8438 17.8125C24.8438 18.4341 24.5968 19.0302 24.1573 19.4698C23.7177 19.9093 23.1216 20.1562 22.5 20.1562C21.8784 20.1562 21.2823 19.9093 20.8427 19.4698C20.4032 19.0302 20.1562 18.4341 20.1562 17.8125Z" fill="white"/>
<path fill-rule="evenodd" clip-rule="evenodd" d="M38.9062 20.55L40.3725 21.7237C40.6644 21.9512 41.0342 22.0544 41.4017 22.0111C41.7692 21.9677 42.1048 21.7812 42.3357 21.4921C42.5667 21.2029 42.6743 20.8344 42.6353 20.4664C42.5963 20.0984 42.4139 19.7606 42.1275 19.5262L26.8931 7.33872C25.6463 6.34096 24.0969 5.79736 22.5 5.79736C20.9031 5.79736 19.3537 6.34096 18.1069 7.33872L2.8725 19.5262C2.58109 19.7592 2.39417 20.0984 2.35285 20.4692C2.31154 20.84 2.41921 21.212 2.65219 21.5034C2.88516 21.7948 3.22436 21.9817 3.59515 22.0231C3.96595 22.0644 4.33797 21.9567 4.62938 21.7237L6.09375 20.55V39.8437H3.75C3.37704 39.8437 3.01935 39.9919 2.75563 40.2556C2.49191 40.5193 2.34375 40.877 2.34375 41.25C2.34375 41.6229 2.49191 41.9806 2.75563 42.2443C3.01935 42.5081 3.37704 42.6562 3.75 42.6562H41.25C41.623 42.6562 41.9806 42.5081 42.2444 42.2443C42.5081 41.9806 42.6562 41.6229 42.6562 41.25C42.6562 40.877 42.5081 40.5193 42.2444 40.2556C41.9806 39.9919 41.623 39.8437 41.25 39.8437H38.9062V20.55ZM17.3438 17.8125C17.3438 16.4449 17.887 15.1334 18.854 14.1665C19.821 13.1995 21.1325 12.6562 22.5 12.6562C23.8675 12.6562 25.179 13.1995 26.146 14.1665C27.113 15.1334 27.6562 16.4449 27.6562 17.8125C27.6562 19.18 27.113 20.4915 26.146 21.4585C25.179 22.4255 23.8675 22.9687 22.5 22.9687C21.1325 22.9687 19.821 22.4255 18.854 21.4585C17.887 20.4915 17.3438 19.18 17.3438 17.8125ZM22.5938 24.8437C23.8388 24.8437 24.9131 24.8437 25.7738 24.96C26.6963 25.0837 27.5794 25.3631 28.2956 26.0793C29.0119 26.7956 29.2913 27.6787 29.415 28.6012C29.5238 29.4075 29.5312 30.4012 29.5312 31.5506V39.8437H26.7188V31.875C26.7188 30.51 26.715 29.625 26.6287 28.9762C26.5462 28.3668 26.415 28.1756 26.3062 28.0687C26.1975 27.9618 26.0081 27.8287 25.3987 27.7462C24.7481 27.66 23.865 27.6562 22.5 27.6562C21.135 27.6562 20.25 27.66 19.6013 27.7462C18.9919 27.8287 18.8006 27.9618 18.6938 28.0687C18.5869 28.1756 18.4538 28.3668 18.3713 28.9762C18.285 29.6268 18.2812 30.51 18.2812 31.875V39.8437H15.4688V31.7812C15.4688 30.5362 15.4688 29.4618 15.585 28.6012C15.7088 27.6787 15.9881 26.7956 16.7044 26.0793C17.4206 25.3631 18.3056 25.0837 19.2262 24.96C20.0869 24.8437 21.1613 24.8437 22.4081 24.8437H22.5938Z" fill="white"/>
<path d="M20.1562 17.8125C20.1563 17.1909 20.4032 16.5948 20.8427 16.1552C21.2823 15.7157 21.8784 15.4688 22.5 15.4688C23.1216 15.4688 23.7177 15.7157 24.1573 16.1552C24.5968 16.5948 24.8438 17.1909 24.8438 17.8125C24.8438 18.4341 24.5968 19.0302 24.1573 19.4698C23.7177 19.9093 23.1216 20.1562 22.5 20.1562C21.8784 20.1562 21.2823 19.9093 20.8427 19.4698C20.4032 19.0302 20.1562 18.4341 20.1562 17.8125Z" fill="white"/>
</svg>
