<svg width="45" height="45" viewBox="0 0 45 45" fill="none" xmlns="http://www.w3.org/2000/svg">
<path d="M32.9587 8.31L29.2087 6.34125C25.9162 4.61437 24.27 3.75 22.5 3.75C20.73 3.75 19.0837 4.6125 15.7912 6.34125L15.1894 6.65813L31.92 16.2187L39.45 12.45C38.2387 11.0775 36.285 10.0519 32.9587 8.30625M40.7775 14.9325L33.2812 18.6825V24.375C33.2812 24.748 33.1331 25.1056 32.8694 25.3694C32.6056 25.6331 32.248 25.7812 31.875 25.7812C31.502 25.7812 31.1444 25.6331 30.8806 25.3694C30.6169 25.1056 30.4687 24.748 30.4687 24.375V20.0887L23.9062 23.37V41.07C25.2525 40.7344 26.7844 39.9319 29.2087 38.6587L32.9587 36.69C36.9919 34.5731 39.0094 33.5156 40.1306 31.6125C41.25 29.7113 41.25 27.3431 41.25 22.6125V22.3931C41.25 18.8438 41.25 16.6238 40.7775 14.9325ZM21.0937 41.07V23.37L4.2225 14.9325C3.75 16.6238 3.75 18.8438 3.75 22.3894V22.6087C3.75 27.3431 3.75 29.7113 4.86937 31.6125C5.99062 33.5156 8.00812 34.575 12.0412 36.6919L15.7912 38.6587C18.2156 39.9319 19.7475 40.7344 21.0937 41.07ZM5.55 12.4519L22.5 20.9269L28.8956 17.73L12.2344 8.20875L12.0412 8.31C8.71687 10.0538 6.76125 11.0794 5.55 12.4538" fill="white"/>
</svg>
