<svg width="25" height="24" viewBox="0 0 25 24" fill="none" xmlns="http://www.w3.org/2000/svg">
<path d="M16.28 12.72C16.4207 12.5795 16.4998 12.3888 16.5 12.19V11.81C16.4977 11.6116 16.4189 11.4217 16.28 11.28L11.14 6.14997C11.0461 6.05532 10.9183 6.00208 10.785 6.00208C10.6517 6.00208 10.5239 6.05532 10.43 6.14997L9.72 6.85997C9.62594 6.95214 9.57293 7.07828 9.57293 7.20997C9.57293 7.34166 9.62594 7.46781 9.72 7.55997L14.17 12L9.72 16.44C9.62534 16.5339 9.5721 16.6617 9.5721 16.795C9.5721 16.9283 9.62534 17.0561 9.72 17.15L10.43 17.85C10.5239 17.9446 10.6517 17.9979 10.785 17.9979C10.9183 17.9979 11.0461 17.9446 11.14 17.85L16.28 12.72Z" fill="#7A4E2D"/>
</svg>
