<svg width="25" height="24" viewBox="0 0 25 24" fill="none" xmlns="http://www.w3.org/2000/svg">
<path d="M8.72 12.72C8.57931 12.5795 8.50018 12.3888 8.5 12.19V11.81C8.5023 11.6116 8.58112 11.4217 8.72 11.28L13.86 6.14997C13.9539 6.05532 14.0817 6.00208 14.215 6.00208C14.3483 6.00208 14.4761 6.05532 14.57 6.14997L15.28 6.85997C15.3741 6.95214 15.4271 7.07828 15.4271 7.20997C15.4271 7.34166 15.3741 7.46781 15.28 7.55997L10.83 12L15.28 16.44C15.3747 16.5339 15.4279 16.6617 15.4279 16.795C15.4279 16.9283 15.3747 17.0561 15.28 17.15L14.57 17.85C14.4761 17.9446 14.3483 17.9979 14.215 17.9979C14.0817 17.9979 13.9539 17.9446 13.86 17.85L8.72 12.72Z" fill="#7A4E2D"/>
</svg>
