<svg width="31" height="30" viewBox="0 0 31 30" fill="none" xmlns="http://www.w3.org/2000/svg">
<g clip-path="url(#clip0_353_2215)">
<path d="M8.55083 13.4875C10.4108 17.025 13.4075 19.9125 17.0629 21.725L19.9046 18.975C20.2533 18.6375 20.77 18.525 21.2221 18.675C22.6688 19.1375 24.2317 19.3875 25.8333 19.3875C26.5437 19.3875 27.125 19.95 27.125 20.6375V25C27.125 25.6875 26.5437 26.25 25.8333 26.25C13.7046 26.25 3.875 16.7375 3.875 5C3.875 4.3125 4.45625 3.75 5.16667 3.75H9.6875C10.3979 3.75 10.9792 4.3125 10.9792 5C10.9792 6.5625 11.2375 8.0625 11.7154 9.4625C11.8575 9.9 11.7542 10.3875 11.3925 10.7375L8.55083 13.4875Z" fill="#7A4E2D"/>
</g>
<defs>
<clipPath id="clip0_353_2215">
<rect width="31" height="30" fill="white"/>
</clipPath>
</defs>
</svg>
