<svg width="24" height="24" viewBox="0 0 24 24" fill="none" xmlns="http://www.w3.org/2000/svg">
<path d="M21.0743 12.154C21.2721 12.1737 21.454 12.2712 21.58 12.4249C21.706 12.5787 21.7658 12.7762 21.7463 12.974C21.2563 17.904 17.0883 21.75 12.0223 21.75C9.29827 21.75 6.65827 20.817 4.78427 19.07L3.00027 20.85C2.80136 20.85 2.61059 20.771 2.46994 20.6303C2.32929 20.4897 2.25027 20.2989 2.25027 20.1V16.14C2.25027 15.426 2.83027 14.85 3.54127 14.85H7.51127C7.71018 14.85 7.90095 14.929 8.0416 15.0697C8.18225 15.2103 8.26127 15.4011 8.26127 15.6L5.84827 18.007C7.40627 19.44 9.62827 20.25 12.0223 20.25C16.3123 20.25 19.8393 16.992 20.2543 12.826C20.274 12.6282 20.3714 12.4463 20.5252 12.3203C20.6789 12.1943 20.8764 12.1345 21.0743 12.154ZM2.25427 11.026C2.74427 6.096 6.91227 2.25 11.9783 2.25C14.7023 2.25 17.3423 3.183 19.2163 4.93L21.0003 3.15C21.1992 3.15 21.3899 3.22902 21.5306 3.36967C21.6713 3.51032 21.7503 3.70109 21.7503 3.9V7.86C21.7503 8.574 21.1703 9.15 20.4593 9.15H16.4893C16.2904 9.15 16.0996 9.07098 15.9589 8.93033C15.8183 8.78968 15.7393 8.59891 15.7393 8.4L18.1523 5.992C16.5943 4.56 14.3723 3.75 11.9783 3.75C7.68827 3.75 4.16127 7.008 3.74627 11.174C3.73937 11.2742 3.71243 11.3719 3.66705 11.4614C3.62168 11.551 3.55878 11.6305 3.4821 11.6953C3.40542 11.7601 3.31651 11.8088 3.22065 11.8386C3.12478 11.8684 3.02391 11.8787 2.92401 11.8688C2.82412 11.8589 2.72722 11.829 2.63908 11.7809C2.55094 11.7329 2.47334 11.6676 2.41088 11.589C2.34842 11.5105 2.30238 11.4201 2.27548 11.3234C2.24858 11.2267 2.24136 11.1256 2.25427 11.026Z" fill="white"/>
</svg>
