<svg width="45" height="45" viewBox="0 0 45 45" fill="none" xmlns="http://www.w3.org/2000/svg">
<path d="M39.5138 22.7887C39.8847 22.8257 40.2257 23.0084 40.462 23.2967C40.6983 23.585 40.8104 23.9553 40.7738 24.3263C39.855 33.57 32.04 40.7812 22.5413 40.7812C17.4338 40.7812 12.4838 39.0319 8.97002 35.7562L5.62502 39.0938C5.25206 39.0938 4.89438 38.9456 4.63065 38.6819C4.36693 38.4181 4.21877 38.0605 4.21877 37.6875V30.2625C4.21877 28.9237 5.30627 27.8438 6.6394 27.8438H14.0831C14.4561 27.8438 14.8138 27.9919 15.0775 28.2556C15.3412 28.5194 15.4894 28.877 15.4894 29.25L10.965 33.7631C13.8863 36.45 18.0525 37.9688 22.5413 37.9688C30.585 37.9688 37.1981 31.86 37.9763 24.0487C38.0132 23.6778 38.1959 23.3368 38.4842 23.1005C38.7725 22.8643 39.1428 22.7521 39.5138 22.7887ZM4.22627 20.6737C5.14502 11.43 12.96 4.21875 22.4588 4.21875C27.5663 4.21875 32.5163 5.96812 36.03 9.24375L39.375 5.90625C39.748 5.90625 40.1057 6.05441 40.3694 6.31813C40.6331 6.58185 40.7813 6.93954 40.7813 7.3125V14.7375C40.7813 16.0763 39.6938 17.1562 38.3606 17.1562H30.9169C30.5439 17.1562 30.1863 17.0081 29.9225 16.7444C29.6588 16.4806 29.5106 16.123 29.5106 15.75L34.035 11.235C31.1138 8.55 26.9475 7.03125 22.4588 7.03125C14.415 7.03125 7.8019 13.14 7.02377 20.9513C7.01083 21.139 6.96032 21.3223 6.87524 21.4902C6.79015 21.6581 6.67223 21.8072 6.52845 21.9287C6.38468 22.0502 6.21797 22.1416 6.03823 22.1974C5.85848 22.2533 5.66935 22.2725 5.48204 22.2539C5.29473 22.2354 5.11305 22.1794 4.94779 22.0893C4.78252 21.9992 4.63702 21.8768 4.51991 21.7295C4.4028 21.5821 4.31647 21.4127 4.26603 21.2314C4.21559 21.05 4.20207 20.8604 4.22627 20.6737Z" fill="white"/>
</svg>
