<svg width="45" height="45" viewBox="0 0 45 45" fill="none" xmlns="http://www.w3.org/2000/svg">
<path d="M22.4999 29.0625C20.7595 29.0625 19.0903 28.3711 17.8596 27.1404C16.6288 25.9097 15.9374 24.2405 15.9374 22.5C15.9374 20.7595 16.6288 19.0903 17.8596 17.8596C19.0903 16.6289 20.7595 15.9375 22.4999 15.9375C24.2404 15.9375 25.9096 16.6289 27.1403 17.8596C28.371 19.0903 29.0624 20.7595 29.0624 22.5C29.0624 24.2405 28.371 25.9097 27.1403 27.1404C25.9096 28.3711 24.2404 29.0625 22.4999 29.0625ZM36.4312 24.3188C36.5062 23.7188 36.5624 23.1188 36.5624 22.5C36.5624 21.8813 36.5062 21.2625 36.4312 20.625L40.3874 17.5688C40.7437 17.2875 40.8374 16.7813 40.6124 16.3688L36.8624 9.88125C36.6374 9.46875 36.1312 9.3 35.7187 9.46875L31.0499 11.3438C30.0749 10.6125 29.0624 9.975 27.8812 9.50625L27.1874 4.5375C27.1494 4.31666 27.0343 4.11643 26.8627 3.97229C26.6911 3.82815 26.474 3.7494 26.2499 3.75H18.7499C18.2812 3.75 17.8874 4.0875 17.8124 4.5375L17.1187 9.50625C15.9374 9.975 14.9249 10.6125 13.9499 11.3438L9.28119 9.46875C8.86869 9.3 8.36244 9.46875 8.13744 9.88125L4.38744 16.3688C4.14369 16.7813 4.25619 17.2875 4.61244 17.5688L8.56869 20.625C8.49369 21.2625 8.43744 21.8813 8.43744 22.5C8.43744 23.1188 8.49369 23.7188 8.56869 24.3188L4.61244 27.4313C4.25619 27.7125 4.14369 28.2188 4.38744 28.6313L8.13744 35.1188C8.36244 35.5313 8.86869 35.6813 9.28119 35.5313L13.9499 33.6375C14.9249 34.3875 15.9374 35.025 17.1187 35.4938L17.8124 40.4625C17.8874 40.9125 18.2812 41.25 18.7499 41.25H26.2499C26.7187 41.25 27.1124 40.9125 27.1874 40.4625L27.8812 35.4938C29.0624 35.0063 30.0749 34.3875 31.0499 33.6375L35.7187 35.5313C36.1312 35.6813 36.6374 35.5313 36.8624 35.1188L40.6124 28.6313C40.8374 28.2188 40.7437 27.7125 40.3874 27.4313L36.4312 24.3188Z" fill="white"/>
</svg>
