<svg width="24" height="24" viewBox="0 0 24 24" fill="none" xmlns="http://www.w3.org/2000/svg">
<path d="M21.5 18H14.5V7H19.8C20.25 7 20.6 7.3 20.75 7.7L22.5 13V17C22.5 17.55 22.05 18 21.5 18Z" fill="white"/>
<path d="M14.5 18H2.5C1.95 18 1.5 17.55 1.5 17V4.5C1.5 3.95 1.95 3.5 2.5 3.5H13.5C14.05 3.5 14.5 3.95 14.5 4.5V18Z" fill="white"/>
<path d="M18.5 20.5C19.8807 20.5 21 19.3807 21 18C21 16.6193 19.8807 15.5 18.5 15.5C17.1193 15.5 16 16.6193 16 18C16 19.3807 17.1193 20.5 18.5 20.5Z" fill="#37474F"/>
<path d="M6.5 20.5C7.88071 20.5 9 19.3807 9 18C9 16.6193 7.88071 15.5 6.5 15.5C5.11929 15.5 4 16.6193 4 18C4 19.3807 5.11929 20.5 6.5 20.5Z" fill="#37474F"/>
<path d="M18.5 19C19.0523 19 19.5 18.5523 19.5 18C19.5 17.4477 19.0523 17 18.5 17C17.9477 17 17.5 17.4477 17.5 18C17.5 18.5523 17.9477 19 18.5 19Z" fill="#78909C"/>
<path d="M6.5 19C7.05228 19 7.5 18.5523 7.5 18C7.5 17.4477 7.05228 17 6.5 17C5.94772 17 5.5 17.4477 5.5 18C5.5 18.5523 5.94772 19 6.5 19Z" fill="#78909C"/>
<path d="M20.5 12.5H17C16.7 12.5 16.5 12.3 16.5 12V8.5C16.5 8.2 16.7 8 17 8H19.65C19.85 8 20.05 8.15 20.1 8.35L20.95 10.95C20.95 11 21 11.05 21 11.1V12C21 12.3 20.8 12.5 20.5 12.5Z" fill="#37474F"/>
<path d="M10.9 6.8999L6.95 10.8499L5.1 8.9499L4 10.0499L6.95 12.9999L12 7.9499L10.9 6.8999Z" fill="white"/>
</svg>
