<svg width="50" height="44" viewBox="0 0 50 44" fill="none" xmlns="http://www.w3.org/2000/svg">
<g clip-path="url(#clip0_503_350)">
<path d="M37.5 11H33.3333C33.3333 6.94829 29.6042 3.66663 25 3.66663C20.3958 3.66663 16.6667 6.94829 16.6667 11H12.5C10.2083 11 8.33333 12.65 8.33333 14.6666V36.6666C8.33333 38.6833 10.2083 40.3333 12.5 40.3333H37.5C39.7917 40.3333 41.6667 38.6833 41.6667 36.6666V14.6666C41.6667 12.65 39.7917 11 37.5 11ZM20.8333 18.3333C20.8333 19.3416 19.8958 20.1666 18.75 20.1666C17.6042 20.1666 16.6667 19.3416 16.6667 18.3333V14.6666H20.8333V18.3333ZM25 7.33329C27.2917 7.33329 29.1667 8.98329 29.1667 11H20.8333C20.8333 8.98329 22.7083 7.33329 25 7.33329ZM33.3333 18.3333C33.3333 19.3416 32.3958 20.1666 31.25 20.1666C30.1042 20.1666 29.1667 19.3416 29.1667 18.3333V14.6666H33.3333V18.3333Z" fill="#F5E8D9"/>
</g>
<defs>
<clipPath id="clip0_503_350">
<rect width="50" height="44" fill="white"/>
</clipPath>
</defs>
</svg>
