<svg width="31" height="31" viewBox="0 0 31 31" fill="none" xmlns="http://www.w3.org/2000/svg">
<path d="M15.5 10.3333C15.5 10.3333 15.5 10.3333 14.5183 9.04165C13.3817 7.54331 11.7025 6.45831 9.6875 6.45831C6.47125 6.45831 3.875 9.05456 3.875 12.2708C3.875 13.4721 4.23667 14.5829 4.85667 15.5C5.90292 17.0629 15.5 27.125 15.5 27.125M15.5 10.3333C15.5 10.3333 15.5 10.3333 16.4817 9.04165C17.6183 7.54331 19.2975 6.45831 21.3125 6.45831C24.5287 6.45831 27.125 9.05456 27.125 12.2708C27.125 13.4721 26.7633 14.5829 26.1433 15.5C25.0971 17.0629 15.5 27.125 15.5 27.125" fill="#8B5E3C"/>
</svg>
