<svg width="31" height="31" viewBox="0 0 31 31" fill="none" xmlns="http://www.w3.org/2000/svg">
<path d="M16.0813 10.5277C16.0813 10.5277 16.0812 10.5277 15.0505 9.17125C13.857 7.59775 12.0939 6.45831 9.97813 6.45831C6.60106 6.45831 3.875 9.18482 3.875 12.5624C3.875 13.8239 4.25475 14.9905 4.90575 15.9536C6.00431 17.5949 16.0813 28.1618 16.0813 28.1618M16.0813 10.5277C16.0813 10.5277 16.0813 10.5277 17.112 9.17125C18.3055 7.59775 20.0686 6.45831 22.1844 6.45831C25.5614 6.45831 28.2875 9.18482 28.2875 12.5624C28.2875 13.8239 27.9077 14.9905 27.2567 15.9536C26.1582 17.5949 16.0813 28.1618 16.0813 28.1618" fill="#D62828"/>
</svg>
